<?xml version="1.0" standalone="no"?>
<!DOCTYPE svg PUBLIC "-//W3C//DTD SVG 20010904//EN"
 "http://www.w3.org/TR/2001/REC-SVG-20010904/DTD/svg10.dtd">
<svg version="1.0" xmlns="http://www.w3.org/2000/svg"
 width="512.000000pt" height="512.000000pt" viewBox="0 0 512.000000 512.000000"
 preserveAspectRatio="xMidYMid meet">
<metadata>
Created by potrace 1.14, written by Peter Selinger 2001-2017
</metadata>
<g transform="translate(0.000000,512.000000) scale(0.100000,-0.100000)"
fill="#000000" stroke="none">
<path d="M0 2560 l0 -2560 2560 0 2560 0 0 2560 0 2560 -2560 0 -2560 0 0
-2560z m3468 373 l-3 -1248 -27 -100 c-96 -352 -323 -565 -674 -631 -69 -13
-124 -15 -249 -11 -193 6 -285 27 -430 97 -258 125 -402 332 -430 618 l-7 72
190 0 190 0 12 -67 c16 -98 51 -165 117 -232 97 -97 240 -151 398 -151 250 0
418 120 497 355 l23 70 3 1238 2 1237 196 0 195 0 -3 -1247z"/>
</g>
</svg>
